# xmcd CD database file
#
# Track frame offsets:
#	200
#	1725
#	18845
#	44305
#	75307
#	98877
#	118300
#	131627
#	144965
#	160967
#	195552
#	216807
#	234212
#
# Disc length: 3409 seconds
#
# Revision: 0
# Processed by: cddbd v1.5PL3 Copyright (c) Steve Scherf et al.
# Submitted via: cdripper 1.0.7
#
DISCID=9b0d4f0d
DTITLE=Tom Larsen - the Hard Way
DYEAR=1992
DGENRE=Blues
TTITLE0=ZBH Intro
TTITLE1=Sexy Lingerie
TTITLE2=Lean and Mean
TTITLE3=Rollover
TTITLE4=Party Girl
TTITLE5=Too Late
TTITLE6=In My Hand
TTITLE7=The Hard Way
TTITLE8=Violent Love
TTITLE9=Do Me
TTITLE10=Whatever It Takes
TTITLE11=Too Proud To Beg
TTITLE12=Lovin' Me To Death
EXTD=YEAR: 1992
EXTT0=
EXTT1=
EXTT2=
EXTT3=
EXTT4=
EXTT5=
EXTT6=
EXTT7=
EXTT8=
EXTT9=
EXTT10=
EXTT11=
EXTT12=
PLAYORDER=
